<svg xmlns="http://www.w3.org/2000/svg" xmlns:svg="http://www.w3.org/2000/svg" id="svg1" width="812" height="293" version="1.1" viewBox="0 0 214.842 77.523" xml:space="preserve"><title id="title26">Movies Store Logo</title><defs id="defs1"><radialGradient id="b" cx="20.656" cy="24.735" r="14.152" gradientTransform="translate(1.972,9.22)" gradientUnits="userSpaceOnUse"><stop id="stop1" offset="0" stop-color="#767676"/><stop id="stop2" offset="1" stop-color="#484848"/></radialGradient><linearGradient id="d" x1="21.032" x2="21.108" y1="31.868" y2="-4.599" gradientTransform="matrix(0.95053,0,0,0.9375,1.451,3.32)" gradientUnits="userSpaceOnUse"><stop id="stop3" offset="0" stop-color="#fff"/><stop id="stop4" offset="1" stop-color="#fff" stop-opacity="0"/></linearGradient><linearGradient id="e" x1="46.545" x2="40.82" y1="35.245" y2="34.14" gradientTransform="matrix(0.88488,0,0,0.88488,5.318,5.943)" gradientUnits="userSpaceOnUse"><stop id="stop5" offset="0" stop-color="#888a85"/><stop id="stop6" offset="1" stop-color="#888a85" stop-opacity="0"/></linearGradient><radialGradient id="a" cx="23.158" cy="26.964" r="21.567" gradientTransform="matrix(1,0,0,0.66393,1.237,9.824)" gradientUnits="userSpaceOnUse"><stop id="stop7" offset="0"/><stop id="stop8" offset="1" stop-opacity="0"/></radialGradient><linearGradient id="c" x1="23.816" x2="29.049" y1="12.75" y2="25.772" gradientTransform="matrix(0.76097,0,0,0.98666,2.905,0.584)" gradientUnits="userSpaceOnUse"><stop id="stop9" offset="0" stop-color="#888a85"/><stop id="stop10" offset="1" stop-color="#b8b9b6"/></linearGradient><linearGradient id="f" x1="43.688" x2="26.625" y1="32.133" y2="32.133" gradientTransform="translate(0,2)" gradientUnits="userSpaceOnUse"><stop id="stop11" offset="0" stop-color="#fff"/><stop id="stop12" offset="1" stop-color="#fff" stop-opacity="0"/></linearGradient></defs><g id="layer1" transform="matrix(1.4959304,0,0,1.4959304,-87.542798,-10.09275)"><g id="g2" transform="matrix(0.40248892,0,0,0.40248892,57.5993,26.875147)" style="stroke-width:.01003;stroke-dasharray:none;fill:#0057ab;fill-opacity:1"><ellipse id="ellipse13" cx="22.5" cy="26.101" fill="#a1a39f" stroke="#6d6f6a" rx="18.5" ry="12.721" style="stroke-width:.01003;stroke-dasharray:none;fill:#0057ab;fill-opacity:1"/><path id="path14" fill="url(#b)" stroke="#3b3d39" d="m 32.37,37.959 c -5.683,0.502 -15.177,0.838 -18.898,-5.039 15.798,4.764 23.087,-3.146 33.779,1.31 l -1.225,6.997 c 0,0 -8.324,-3.737 -13.656,-3.267 z" style="fill:#0057ab;stroke-width:.01003;stroke-dasharray:none;fill-opacity:1"/><path id="path15" fill="#d3d7cf" fill-rule="evenodd" stroke="#888a85" d="m 21.094,7.719 c -5.803,0.266 -11.836,2.712 -15.246,7.626 -2.401,3.461 -2.42,8.297 -0.023,11.766 3.448,4.99 9.611,7.37 15.487,7.643 6.195,0.286 12.84,-1.684 17.008,-6.493 2.737,-3.158 3.53,-7.913 1.557,-11.66 -2.654,-5.037 -8.215,-7.78 -13.65,-8.607 A 26.148,26.148 0 0 0 21.094,7.719 Z m -1.375,2.187 c 2.279,-0.123 5.229,0.745 5.814,3.208 0.514,2.161 -1.739,3.77 -3.65,4.156 -2.432,0.49 -5.725,-0.115 -6.685,-2.643 -1.027,-2.701 2.2,-4.595 4.521,-4.72 z m 11.5,4.594 c 2.381,-0.166 5.38,0.726 6.167,3.221 0.676,2.145 -1.405,3.97 -3.323,4.497 -2.61,0.717 -6.034,0.204 -7.471,-2.308 -1.022,-1.787 0.347,-3.885 2.036,-4.675 0.819,-0.383 1.69,-0.672 2.59,-0.735 z M 12,17.656 c 2.444,-0.166 5.542,0.724 6.351,3.292 0.695,2.205 -1.44,4.089 -3.413,4.634 -2.685,0.743 -6.209,0.207 -7.68,-2.38 -1.042,-1.83 0.327,-4 2.071,-4.808 0.844,-0.39 1.745,-0.675 2.671,-0.738 z m 11.531,5.125 c 2.652,-0.215 5.88,0.596 7.118,3.2 0.984,2.073 -0.635,4.315 -2.539,5.17 -3.052,1.373 -7.255,0.99 -9.352,-1.818 -1.297,-1.735 -0.406,-4.184 1.31,-5.286 1.046,-0.673 2.228,-1.166 3.463,-1.266 z" style="stroke-width:.01003;stroke-dasharray:none;fill:#0057ab;fill-opacity:1"/><path id="path17" fill="url(#f)" d="m 46.875,34.312 -0.188,0.875 c -8.104,-3.029 -15.565,-0.227 -23.374,0 10.61,-0.883 14.09,-3.716 23.562,-0.875 z" opacity=".703" style="fill:#fff;stroke-width:.01003;stroke-dasharray:none;fill-opacity:1"/><ellipse id="ellipse16" cx="22.539" cy="21.141" fill="none" stroke="url(#d)" rx="17.559" ry="12.595" style="stroke:url(#d);stroke-width:.01003;stroke-dasharray:none;fill:#fff;fill-opacity:1"/></g><g id="g1" transform="matrix(0.03611242,0,0,0.03611242,67.602134,-5.2559624)" style="stroke-width:.01003;stroke-dasharray:none"><path id="path2" fill="#0057ab" d="m 2046.8,1538.65 c -6.813,-22.834 -49.283,-160.537 -120.831,-292.567 -94.261,-173.943 -175.33,-298.279 -310.402,-424.563 -43.445,-40.618 -84.6,-76.916 -127.448,-109.498 h 0.047 c 0,0 -0.329,-0.232 -0.926,-0.673 -0.801,-0.607 -1.602,-1.214 -2.403,-1.818 -15.987,-12.352 -83.345,-69.109 -59.382,-131.767 8.031,-21 27.421,-38.45 50.479,-52.569 l 124.091,-1.011 v -46 l -0.03,10e-4 c 0,0 0.016,-0.003 0.016,-0.003 0,0 -72.661,-24.686 -199.807,-16.53 -119.328,7.655 -226.545,77.432 -246.588,87.241 -64.265,-18.396 -137.59,-34.619 -223.344,-49.168 C 633.663,449.402 382.633,529.621 256.668,617.05 91.567,731.642 96.135,838.418 82.524,891.826 74.093,924.911 -0.884,986.089 0.014,1029.009 v 45.18 l 15.489,15.96 58.397,-19.849 6.985,-24.359 c 24.022,-8.59 50.325,-20.532 74.217,-30.359 59.615,-24.521 64.209,-37.858 227.133,-62.167 74.956,-11.184 153.843,-14.393 212.575,-14.886 22.855,48.26 79.68,147.46 178.133,195.042 64.027,30.944 135.739,46.795 192.883,54.915 l -7.493,37.679 113.668,16.846 v -45.969 l -0.087,-0.035 c 0.022,0 0.035,0 0.035,0 0,0 -95.434,-39.648 -154.146,-98.356 -39.956,-39.953 -49.518,-100.64 -51.552,-135.342 l 0.359,0.033 c 96.193,18.278 180.215,31.468 381.156,108.425 37.166,14.233 71.829,29.835 103.407,45.589 l -5.935,3.35 90.575,73.044 108.183,89.527 v -45.969 l -0.358,-0.332 c -1.596,-1.983 -124.799,-154.603 -331.827,-256.712 C 1040.709,895.872 900.226,854.177 705.582,844.737 492.826,834.418 336.06,861.736 336.06,861.736 c 0,0 4.385,-94.537 165.003,-169.88 139.666,-65.516 359.388,-76.481 611.558,-12.15 356.261,90.886 477.766,245.646 631.012,405.573 97.226,101.465 186.606,244.229 242.951,343.009 l -9.49,-4.259 29.19,75.387 41.753,89.096 v -46.264 l -1.237,-3.603 z" style="stroke-width:.01003;stroke-dasharray:none"/><path id="path3" fill="url(#g)" d="m 1926,1292 c -94.261,-173.943 -175.33,-298.279 -310.402,-424.563 -43.446,-40.619 -84.601,-76.917 -127.45,-109.499 l 0.049,0.01 c 0,0 -0.34,-0.24 -0.962,-0.699 -0.773,-0.586 -1.547,-1.172 -2.321,-1.757 -15.904,-12.279 -83.413,-69.084 -59.428,-131.801 26.32,-68.822 174.556,-99.582 174.556,-99.582 0,0 -72.661,-24.686 -199.807,-16.53 -119.328,7.655 -226.545,77.432 -246.588,87.241 -64.265,-18.396 -137.59,-34.619 -223.344,-49.168 C 633.694,495.329 382.664,575.548 256.699,662.977 91.598,777.569 96.166,884.345 82.555,937.753 72.761,976.185 -26.834,1052.525 7.021,1094.12 c 21.122,25.95 91.411,-9.289 148.113,-32.611 59.615,-24.521 64.209,-37.859 227.133,-62.168 74.956,-11.184 153.843,-14.393 212.575,-14.886 22.855,48.26 79.68,147.46 178.133,195.042 132.934,64.246 299.005,63.438 299.005,63.438 0,0 -95.434,-39.648 -154.146,-98.356 -39.956,-39.953 -49.518,-100.64 -51.552,-135.342 l 0.359,0.033 c 96.193,18.278 180.215,31.468 381.156,108.425 175.815,67.334 295.91,165.256 295.91,165.256 0,0 -123.479,-153.98 -331.865,-256.76 C 1040.74,941.8 900.257,900.105 705.613,890.665 492.857,880.346 336.091,907.664 336.091,907.664 c 0,0 4.385,-94.537 165.003,-169.88 139.666,-65.516 359.388,-76.481 611.558,-12.15 356.261,90.886 477.766,245.646 631.012,405.573 163.107,170.22 304.146,456.685 304.146,456.685 0,0 -43.489,-151.357 -121.81,-295.887 z" style="stroke-width:.01003;stroke-dasharray:none"/></g><text xml:space="preserve" style="font-size:14.4043px;text-align:start;writing-mode:lr-tb;direction:ltr;text-anchor:start;fill:#0057ab;fill-opacity:1;stroke:red;stroke-width:.723216;stroke-dasharray:17.3572,.723216;stroke-dashoffset:0" id="text2" x="167.521" y="27.952"><tspan id="tspan2" style="font-style:normal;font-variant:normal;font-weight:700;font-stretch:normal;font-size:14.4043px;font-family:Futura;-inkscape-font-specification:'Futura Bold';text-align:center;text-anchor:middle;fill:#0057ab;fill-opacity:1;stroke:#000;stroke-width:.723216;stroke-dasharray:17.3572,.723216;stroke-dashoffset:0;stroke-opacity:1" x="167.521" y="27.952">MOVIES</tspan><tspan style="font-style:normal;font-variant:normal;font-weight:700;font-stretch:normal;font-size:14.4043px;font-family:Futura;-inkscape-font-specification:'Futura Bold';text-align:center;text-anchor:middle;fill:#fff;fill-opacity:1;stroke:#000;stroke-width:.723216;stroke-dasharray:17.3572,.723216;stroke-dashoffset:0;stroke-opacity:1" id="tspan3" x="167.521" y="46.556">STORE</tspan></text></g><metadata id="metadata26"/></svg>